<svg id="Logo" xmlns="http://www.w3.org/2000/svg" viewBox="0 0 143 24.92"><title>AI_logo_footer</title><path id="Doctreat" d="M34.07,21.43h7.52a9.89,9.89,0,0,0,6.65-2.27,9.08,9.08,0,0,0,2.84-6.85A8.7,8.7,0,0,0,48.24,5.5a9.78,9.78,0,0,0-6.65-2.29H34.07V21.43ZM38,18V6.66h3.58c2.47,0,5.5.9,5.5,5.68s-3,5.68-5.5,5.68H38v0Zm22,3.74a7.33,7.33,0,0,0,7.47-7.15,7.45,7.45,0,0,0-14.89,0A7.3,7.3,0,0,0,60,21.76v0Zm0-11a3.75,3.75,0,0,1,3.76,3.74s0,0.09,0,.13a3.78,3.78,0,0,1-3.65,3.91H60a3.73,3.73,0,0,1-3.76-3.7q0-.11,0-0.21a3.78,3.78,0,0,1,3.69-3.87H60Zm16.23,11a6.79,6.79,0,0,0,6.62-4L79.72,16.5a3.89,3.89,0,0,1-3.46,2,3.69,3.69,0,0,1-3.76-3.61q0-.13,0-0.26A3.69,3.69,0,0,1,76,10.76h0.22a3.84,3.84,0,0,1,3.36,2L83,11.48a7.4,7.4,0,0,0-6.72-4,7.3,7.3,0,0,0-7.44,7.12,7.35,7.35,0,0,0,7.42,7.17Zm13-11H92V7.5H89.23V3.84H85.55V7.5H83.89v3.27h1.66v7.6c0,2.89,1.77,3.42,4.66,3.42,0.52,0,1.22,0,1.66-.1V18.54a8.57,8.57,0,0,1-.94,0c-1.67,0-1.69-1.29-1.69-2V10.76h0v0Zm13,0.35V7.48A5.81,5.81,0,0,0,97.5,9.54V7.72H93.79V21.43H97.5V15.37a4.09,4.09,0,0,1,4.68-4.26Zm7.66,10.66a7.56,7.56,0,0,0,6.4-3.19l-2.89-1.67a4.41,4.41,0,0,1-3.51,1.59c-0.75,0-3.28-.25-3.73-2.49H117a16,16,0,0,0,0-1.69,6.9,6.9,0,0,0-7-6.81h-0.17c-2.56,0-7.45,1.5-7.45,7.12s4.8,7.16,7.46,7.16h0Zm0-11a3.19,3.19,0,0,1,3.24,2.61h-6.85c0.15-1.39,1.46-2.61,3.61-2.61h0Zm19.54,10.67H133V7.72h-3.68V9.14a5.16,5.16,0,0,0-4.16-1.72c-4.33,0-6.87,3.21-6.87,7.15s2.54,7.15,6.87,7.15a5.53,5.53,0,0,0,4.2-1.72v1.38Zm0.15-6.85a3.53,3.53,0,0,1-3.76,3.87A3.66,3.66,0,0,1,122,14.58a3.76,3.76,0,0,1,7.52,0h0.06Zm10.75-3.81H143V7.5h-2.74V3.84h-3.68V7.5h-1.66v3.27h1.66v7.6c0,2.89,1.77,3.42,4.66,3.42,0.52,0,1.22,0,1.66-.1V18.54a8.57,8.57,0,0,1-.94,0c-1.66,0-1.69-1.29-1.69-2V10.77h0.06Z" fill="#fff"/><path id="Icon" d="M9.72,13.91a0.87,0.87,0,0,1-.87.76H2.66A0.86,0.86,0,0,1,2.54,13H8.87a0.85,0.85,0,0,1,.85.85h0A0.43,0.43,0,0,1,9.72,13.91Zm0-2.88A0.86,0.86,0,0,1,9,12H4.43a0.85,0.85,0,0,1-.85-0.85h0a0.36,0.36,0,0,1,0-.1,0.87,0.87,0,0,1,.87-0.76h4.4a0.86,0.86,0,0,1,.87.71v0ZM29,9.78v5.35a2.64,2.64,0,0,1-2.64,2.64H22.91a1.06,1.06,0,0,0-1.07,1s0,0,0,0h0v3.43a2.64,2.64,0,0,1-2.64,2.64H13.85A2.64,2.64,0,0,1,11.2,22.3a0.91,0.91,0,0,1,.73-0.87,0.85,0.85,0,0,1,1,.68v0a0.67,0.67,0,0,1,0,.13,0.92,0.92,0,0,0,.92.92h5.37a0.93,0.93,0,0,0,.93-0.93h0V18.18a2.12,2.12,0,0,1,2.12-2.12h4.1a0.93,0.93,0,0,0,.93-0.93h0V9.77a0.93,0.93,0,0,0-.93-0.93h-4.1a2.14,2.14,0,0,1-2.13-2.12V2.64a0.93,0.93,0,0,0-.93-0.93H13.85a0.93,0.93,0,0,0-.93.93h0V6.73A2.12,2.12,0,0,1,10.8,8.85H6.71a0.86,0.86,0,0,1-.12-1.71h3.54a1.06,1.06,0,0,0,1.07-1s0,0,0,0h0V2.64A2.64,2.64,0,0,1,13.84,0H19.2a2.64,2.64,0,0,1,2.64,2.64V6.08a1.06,1.06,0,0,0,1,1.07h3.46A2.63,2.63,0,0,1,29,9.76v0Z" fill="#fff"/><path id="Icon-2" d="M19,14.8a3,3,0,0,1-2.88,3H0.88a0.86,0.86,0,0,1-.12-1.71H16a1.27,1.27,0,0,0,.16-2.53l-1.06-.13,0.35-1A1.25,1.25,0,0,0,15.52,12,1.27,1.27,0,0,0,13,12v1.94a0.86,0.86,0,0,1-1.71.12V12a3,3,0,0,1,6,0v0.1A3,3,0,0,1,19,14.8Z" fill="#ff5851"/></svg>